<svg width="88" height="88" viewBox="0 0 88 88" fill="none" xmlns="http://www.w3.org/2000/svg">
  <g transform="translate(16, 28)">
    <!-- ABC logo simplified -->
    <circle cx="28" cy="16" r="14" fill="#FFD100"/>
    <path d="M8 4 L18 28 L24 28 L34 4 L28 4 L22 20 L16 4 Z" fill="#000000"/>
    <path d="M4 24 L8 24 L10 18 L18 18 L20 24 L24 24 L16 4 L12 4 Z M13 10 L15 16 L11 16 Z" fill="#000000"/>
    <path d="M28 4 L28 28 L42 28 Q46 28 48 26 Q50 24 50 20 Q50 16 48 14 Q46 12 42 12 L32 12 L32 8 L46 8 L46 4 Z M32 16 L42 16 Q44 16 44 20 Q44 24 42 24 L32 24 Z" fill="#000000"/>
  </g>
</svg>