<svg xmlns="http://www.w3.org/2000/svg" viewBox="0 0 512 512" role="img" aria-label="AP News">
  <title>AP News</title>
  <defs>
    <style>
      .ap-black{fill:#000000}
      .ap-red{fill:#F01D24}
    </style>
  </defs>
  <!-- "AP" letters (geometric, no external fonts) -->
  <path class="ap-black" d="M118 356l63-200h52l63 200h-45l-13-44h-62l-13 44h-45zm73-82h44l-22-76-22 76zM298 156h80c40 0 63 23 63 56 0 27-13 45-37 53l44 91h-48l-39-84h-20v84h-43V156zm75 82c17 0 26-8 26-22 0-13-9-21-26-21h-32v43h32z"/>
  <!-- red underline bar -->
  <rect class="ap-red" x="96" y="396" width="320" height="32" rx="4" ry="4"/>
</svg>