<svg width="120" height="40" viewBox="0 0 120 40" fill="none" xmlns="http://www.w3.org/2000/svg">
  <g fill="#1a1a1a">
    <path d="M15 28L17 8H20L22 18L24 8H27L29 28H26L25 12L23.5 28H21.5L20 12L19 28H15Z"/>
    <path d="M35 28V10H38.5C40.4 10 42 11.6 42 13.5C42 14.6 41.4 15.5 40.5 16C41.4 16.5 42 17.4 42 18.5C42 20.4 40.4 22 38.5 22H37.5V28H35ZM37.5 15H38.5C39.3 15 40 14.3 40 13.5S39.3 12 38.5 12H37.5V15ZM37.5 20H39C39.8 20 40.5 19.3 40.5 18.5S39.8 17 39 17H37.5V20Z"/>
    <path d="M50 28V18C50 15.8 51.8 14 54 14C56.2 14 58 15.8 58 18V28H55.5V18.5C55.5 17.7 54.8 17 54 17S52.5 17.7 52.5 18.5V28H50Z"/>
    <path d="M65 28V8H72V10.5H67.5V16.5H71.5V19H67.5V25.5H72V28H65Z"/>
    <path d="M80 28L77 8H80L82 22L84.5 8H87L89.5 22L91 8H94L91 28H88L86 12L84.5 28H82.5L81 12L80 28Z"/>
    <path d="M98 18.5C98 21.5 100.5 24 103.5 24C106.5 24 109 21.5 109 18.5C109 15.5 106.5 13 103.5 13C100.5 13 98 15.5 98 18.5ZM100.5 18.5C100.5 16.8 101.8 15.5 103.5 15.5C105.2 15.5 106.5 16.8 106.5 18.5C106.5 20.2 105.2 21.5 103.5 21.5C101.8 21.5 100.5 20.2 100.5 18.5Z"/>
  </g>
</svg>