<svg width="120" height="26" viewBox="0 0 120 26" fill="none" xmlns="http://www.w3.org/2000/svg">
  <g fill="currentColor">
    <path d="M4 6H9.5C11.7 6 13 7.3 13 9.2C13 10.4 12.3 11.3 11.5 11.7C12.5 12.1 13.5 13.1 13.5 14.8C13.5 16.9 12 18.5 9.8 18.5H4V6ZM6 11H9C10.1 11 10.5 10.4 10.5 9.5C10.5 8.6 10.1 8 9 8H6V11ZM6 13V16.5H9.5C10.6 16.5 11 15.9 11 15C11 14.1 10.6 13.5 9.5 13.5H6V13Z"/>
    <path d="M16 20V9H23V11H18V13H22V15H18V18H23V20H16Z"/>
    <path d="M26 20V9H28V13.5L32 9H34.5L31 13L34.5 20H32L29.5 15L28 16.5V20H26Z"/>
    <path d="M37 20V11H40V9H44V11H47V13H44V16.5C44 17.3 44.3 17.5 45 17.5H47V20H44.5C42.5 20 40 19.5 40 16.5V13H37V20Z"/>
    <path d="M50 9H52V20H50V9Z"/>
    <path d="M56 20V9H58V13.5L62 9H64.5L61 13L64.5 20H62L59.5 15L58 16.5V20H56Z"/>
    <path d="M68 17.5V16C68 12.5 70.5 9 74.5 9C78.5 9 81 12.5 81 16C81 16.5 81 17 80.9 17.5H70.5C70.7 18.8 71.8 19.5 73.5 19.5C74.8 19.5 75.7 19 76.2 18.2L78.5 19.5C77.5 21 75.8 21.5 73.5 21.5C69.5 21.5 68 18 68 17.5ZM70.5 15.5H78.5C78.3 13.2 77.2 11.5 74.5 11.5C71.8 11.5 70.7 13.2 70.5 15.5Z"/>
    <path d="M84 20V9H86V10.5C86.8 9.5 88 9 89.5 9C91.8 9 93.5 10.7 93.5 13V20H91.5V13.5C91.5 11.8 90.7 11 89.5 11C88.3 11 87.5 11.8 87.5 13.5V20H84Z"/>
    <path d="M97 17.5V16C97 12.5 99.5 9 103.5 9C107.5 9 110 12.5 110 16C110 16.5 110 17 109.9 17.5H99.5C99.7 18.8 100.8 19.5 102.5 19.5C103.8 19.5 104.7 19 105.2 18.2L107.5 19.5C106.5 21 104.8 21.5 102.5 21.5C98.5 21.5 97 18 97 17.5ZM99.5 15.5H107.5C107.3 13.2 106.2 11.5 103.5 11.5C100.8 11.5 99.7 13.2 99.5 15.5Z"/>
  </g>
</svg>