<svg width="120" height="40" viewBox="0 0 120 40" fill="none" xmlns="http://www.w3.org/2000/svg">
  <g fill="currentColor">
    <path d="M14 28V8H18.5C20.4 8 22 9.6 22 11.5C22 12.6 21.4 13.5 20.5 14C21.4 14.5 22 15.4 22 16.5C22 18.4 20.4 20 18.5 20H16.5V28H14ZM16.5 13H18C18.8 13 19.5 12.3 19.5 11.5S18.8 10 18 10H16.5V13ZM16.5 18H18.5C19.3 18 20 17.3 20 16.5S19.3 15 18.5 15H16.5V18Z"/>
    <path d="M28 28V8H35V10.5H30.5V16.5H34.5V19H30.5V25.5H35V28H28Z"/>
    <path d="M41 28V18C41 15.8 42.8 14 45 14C47.2 14 49 15.8 49 18V28H46.5V18.5C46.5 17.7 45.8 17 45 17S43.5 17.7 43.5 18.5V28H41Z"/>
    <path d="M55 28V14H59.5L61.5 22L63.5 14H68V28H65.5V18L63.5 28H59.5L57.5 18V28H55Z"/>
    <path d="M74 28V14H79.5L81.5 22L83.5 14H88V28H85.5V18L83.5 28H79.5L77.5 18V28H74Z"/>
    <path d="M94 28V8H101V10.5H96.5V16.5H100.5V19H96.5V25.5H101V28H94Z"/>
  </g>
</svg>