<svg width="120" height="40" viewBox="0 0 120 40" fill="none" xmlns="http://www.w3.org/2000/svg">
  <g fill="currentColor">
    <path d="M14 28V8H17V13.5L20.5 12L25 20L20 22.5V25L14 28Z"/>
    <path d="M32 28V12H34.5V28H32ZM33.25 10.5C33.9 10.5 34.5 10 34.5 9.25S33.9 8 33.25 8S32 8.5 32 9.25S32.6 10.5 33.25 10.5Z"/>
    <path d="M41 28V18C41 15.8 42.8 14 45 14C47.2 14 49 15.8 49 18V28H46.5V18.5C46.5 17.7 45.8 17 45 17S43.5 17.7 43.5 18.5V28H41Z"/>
    <path d="M55 28V18C55 15.8 56.8 14 59 14C60.1 14 61.1 14.4 61.8 15.1V12H64.3V28H61.8V26.9C61.1 27.6 60.1 28 59 28C56.8 28 55 26.2 55 24V18ZM57.5 24C57.5 24.8 58.2 25.5 59 25.5S60.5 24.8 60.5 24V18C60.5 17.2 59.8 16.5 59 16.5S57.5 17.2 57.5 18V24Z"/>
  </g>
</svg>