<svg width="120" height="40" viewBox="0 0 120 40" fill="none" xmlns="http://www.w3.org/2000/svg">
  <g fill="#00809d">
    <path d="M15 28V10H18.5C20.4 10 22 11.6 22 13.5C22 14.6 21.4 15.5 20.5 16C21.4 16.5 22 17.4 22 18.5C22 20.4 20.4 22 18.5 22H17.5V28H15ZM17.5 15H18.5C19.3 15 20 14.3 20 13.5S19.3 12 18.5 12H17.5V15ZM17.5 20H19C19.8 20 20.5 19.3 20.5 18.5S19.8 17 19 17H17.5V20Z"/>
    <path d="M28 28V14H30.5V28H28Z"/>
    <path d="M37 28V18C37 15.8 38.8 14 41 14C43.2 14 45 15.8 45 18V28H42.5V18.5C42.5 17.7 41.8 17 41 17S39.5 17.7 39.5 18.5V28H37Z"/>
    <path d="M52 20C52 16.7 54.7 14 58 14C60.3 14 62.2 15.4 62.8 17.3L60.5 18.2C60.2 17.4 59.2 16.8 58 16.8C56.1 16.8 54.5 18.4 54.5 20C54.5 21.6 56.1 23.2 58 23.2C59.2 23.2 60.2 22.6 60.5 21.8L62.8 22.7C62.2 24.6 60.3 26 58 26C54.7 26 52 23.3 52 20C"/>
    <path d="M70 28V18L65 8H68L71 16L74 8H77L72 18V28H70Z"/>
  </g>
</svg>