<svg width="120" height="40" viewBox="0 0 120 40" fill="none" xmlns="http://www.w3.org/2000/svg">
  <g fill="currentColor">
    <path d="M20 20C20 16.7 22.7 14 26 14C27.3 14 28.5 14.4 29.5 15.1L27.1 17.5C26.5 17.1 25.8 16.8 25 16.8C24.1 16.8 23.3 17.6 23.3 18.5S24.1 20.2 25 20.2C25.8 20.2 26.5 19.9 27.1 19.5L29.5 21.9C28.5 22.6 27.3 23 26 23C22.7 23 20 20.3 20 17Z"/>
    <path d="M34 22V10H38.5C40.4 10 42 11.6 42 13.5C42 14.6 41.4 15.5 40.5 16C41.4 16.5 42 17.4 42 18.5C42 20.4 40.4 22 38.5 22H34ZM36.5 15H38C38.8 15 39.5 14.3 39.5 13.5S38.8 12 38 12H36.5V15ZM36.5 20H38.5C39.3 20 40 19.3 40 18.5S39.3 17 38.5 17H36.5V20Z"/>
    <path d="M47 18.5C47 21.5 49.5 24 52.5 24C54.5 24 56.2 23 57.2 21.5L55.2 20C54.6 20.8 53.6 21.3 52.5 21.3C51.1 21.3 49.9 20.1 49.9 18.5C49.9 16.9 51.1 15.7 52.5 15.7C53.6 15.7 54.6 16.2 55.2 17L57.2 15.5C56.2 14 54.5 13 52.5 13C49.5 13 47 15.5 47 18.5Z"/>
  </g>
</svg>