<svg width="88" height="88" viewBox="0 0 88 88" fill="none" xmlns="http://www.w3.org/2000/svg">
  <g transform="translate(16, 24)">
    <!-- CBS Eye logo -->
    <ellipse cx="28" cy="20" rx="24" ry="16" fill="#003366"/>
    <ellipse cx="28" cy="20" rx="18" ry="12" fill="#FFFFFF"/>
    <ellipse cx="28" cy="20" rx="12" ry="8" fill="#003366"/>
    <ellipse cx="28" cy="20" rx="6" ry="4" fill="#FFFFFF"/>
    <circle cx="28" cy="20" r="3" fill="#003366"/>
    <!-- CBS letters -->
    <path d="M4 12 Q2 12 1 13 Q0 14 0 16 Q0 18 1 19 Q2 20 4 20 L8 20 L8 18 L4 18 Q3 18 3 16 Q3 14 4 14 L8 14 L8 12 Z" fill="#FFFFFF"/>
    <path d="M10 12 L10 20 L18 20 Q20 20 21 19 Q22 18 22 16 Q22 14 21 13 Q20 12 18 12 Z M12 14 L18 14 Q19 14 19 16 Q19 18 18 18 L12 18 Z" fill="#FFFFFF"/>
    <path d="M24 12 Q24 13 25 13 L31 13 Q32 13 32 12 Q32 11 31 11 L27 11 L27 18 L31 18 Q32 18 32 17 Q32 16 31 16 L25 16 Q24 16 24 17 Q24 18 25 18 L27 18 L27 20 L25 20 Q24 20 24 19 Z" fill="#FFFFFF"/>
  </g>
</svg>