<svg width="120" height="26" viewBox="0 0 120 26" fill="none" xmlns="http://www.w3.org/2000/svg">
  <g fill="currentColor">
    <path d="M8 18.5C11 18.5 13 16.5 13 14.5C13 12.5 11 10.5 8 10.5C5 10.5 3 12.5 3 14.5C3 16.5 5 18.5 8 18.5ZM8 8.5C12.4 8.5 15 11.1 15 14.5C15 17.9 12.4 20.5 8 20.5C3.6 20.5 1 17.9 1 14.5C1 11.1 3.6 8.5 8 8.5Z"/>
    <path d="M18 6H22.5C24.7 6 26 7.3 26 9.2C26 10.4 25.3 11.3 24.5 11.7C25.5 12.1 26.5 13.1 26.5 14.8C26.5 16.9 25 18.5 22.8 18.5H18V6ZM20 11H22.5C23.6 11 24 10.4 24 9.5C24 8.6 23.6 8 22.5 8H20V11ZM20 13V16.5H23C24.1 16.5 24.5 15.9 24.5 15C24.5 14.1 24.1 13.5 23 13.5H20V13Z"/>
    <path d="M30 18.5C33.3 18.5 35.5 17 35.5 14.5C35.5 12.8 34.5 11.8 32.8 11.3C34 10.8 34.5 10 34.5 8.8C34.5 6.8 32.8 5.5 30 5.5C27.2 5.5 25.5 6.8 25.5 8.8H27.5C27.5 7.8 28.5 7.5 30 7.5C31.5 7.5 32.5 7.8 32.5 8.8C32.5 9.8 31.5 10.2 30 10.2H29V12.2H30C32 12.2 33.5 12.5 33.5 14.5C33.5 15.8 32.2 16.5 30 16.5C27.8 16.5 26.5 15.8 26.5 14.5H24.5C24.5 17 26.7 18.5 30 18.5Z"/>
    <path d="M42 6H44V8H46V10H44V16C44 17 44.5 17.5 45.5 17.5H46V20H45C42.5 20 40 19.5 40 16V10H38V8H40V6H42Z"/>
    <path d="M52 6H54V8H56V10H54V16C54 17 54.5 17.5 55.5 17.5H56V20H55C52.5 20 50 19.5 50 16V10H48V8H50V6H52Z"/>
    <path d="M62 6H66V14H70V6H74V20H70V16H66V20H62V6Z"/>
  </g>
</svg>