<svg width="80" height="80" viewBox="0 0 80 80" fill="none" xmlns="http://www.w3.org/2000/svg">
  <circle cx="40" cy="40" r="39" fill="#ffffff" stroke="#e2e8f0" stroke-width="2"/>
  <g transform="translate(15, 20)">
    <!-- NBC Peacock simplified -->
    <path d="M8 25L6 20L4 25L6 30L8 25Z" fill="#ff6b35"/>
    <path d="M12 25L10 20L8 25L10 30L12 25Z" fill="#f7931e"/>
    <path d="M16 25L14 20L12 25L14 30L16 25Z" fill="#ffd100"/>
    <path d="M20 25L18 20L16 25L18 30L20 25Z" fill="#22b14c"/>
    <path d="M24 25L22 20L20 25L22 30L24 25Z" fill="#00a1c9"/>
    <path d="M28 25L26 20L24 25L26 30L28 25Z" fill="#7209b7"/>
    <text x="8" y="40" font-family="Arial, sans-serif" font-size="12" font-weight="700" fill="#1a1a1a">NBC</text>
  </g>
</svg>