<svg width="120" height="60" viewBox="0 0 120 60" fill="none" xmlns="http://www.w3.org/2000/svg">
  <rect width="120" height="60" rx="12" fill="#ffffff" stroke="#e2e8f0" stroke-width="1"/>
  <g transform="translate(20, 15)">
    <!-- FOX wordmark -->
    <path d="M0 8 L0 22 L4 22 L4 18 L12 18 L12 14 L4 14 L4 12 L16 12 L16 8 Z" fill="#003366"/>
    <path d="M20 12 Q16 12 14 14 Q12 16 12 20 Q12 24 14 26 Q16 28 20 28 Q24 28 26 26 Q28 24 28 20 Q28 16 26 14 Q24 12 20 12 Z M20 16 Q22 16 22 20 Q22 24 20 24 Q18 24 18 20 Q18 16 20 16 Z" fill="#003366"/>
    <path d="M32 12 L44 20 L32 28 L32 30 L52 20 L32 10 Z" fill="#003366"/>
    
    <!-- NEWS accent -->
    <text x="4" y="28" font-family="Arial, sans-serif" font-size="6" font-weight="600" fill="#c41e3a">NEWS</text>
    <rect x="0" y="4" width="2" height="28" fill="#c41e3a" rx="1"/>
  </g>
</svg>