<svg width="120" height="40" viewBox="0 0 120 40" fill="none" xmlns="http://www.w3.org/2000/svg">
  <g fill="#ff6000">
    <path d="M15 28V8H22V10.5H17.5V16.5H21.5V19H17.5V28H15Z"/>
    <path d="M28 20C28 16.7 30.7 14 34 14C37.3 14 40 16.7 40 20C40 23.3 37.3 26 34 26C30.7 26 28 23.3 28 20ZM30.5 20C30.5 21.9 32.1 23.5 34 23.5C35.9 23.5 37.5 21.9 37.5 20C37.5 18.1 35.9 16.5 34 16.5C32.1 16.5 30.5 18.1 30.5 20Z"/>
    <path d="M46 28V24L49 21L46 18V14L51 20L46 28Z"/>
    <path d="M57 28V14L61 20L65 14V28H62.5V19L61 21L59.5 19V28H57Z"/>
    <path d="M73 28V20H77v8H79.5V8H77V18H73V8H70.5V28H73Z"/>
    <path d="M86 20C86 16.7 88.7 14 92 14C95.3 14 98 16.7 98 20C98 23.3 95.3 26 92 26C88.7 26 86 23.3 86 20ZM88.5 20C88.5 21.9 90.1 23.5 92 23.5C93.9 23.5 95.5 21.9 95.5 20C95.5 18.1 93.9 16.5 92 16.5C90.1 16.5 88.5 18.1 88.5 20Z"/>
  </g>
</svg>