<svg width="120" height="26" viewBox="0 0 120 26" fill="none" xmlns="http://www.w3.org/2000/svg">
  <g fill="currentColor">
    <path d="M4 20V6H12V8H6V12H11V14H6V20H4Z"/>
    <path d="M15 17.5V16C15 12.5 17.5 9 21.5 9C25.5 9 28 12.5 28 16C28 16.5 28 17 27.9 17.5H17.5C17.7 18.8 18.8 19.5 20.5 19.5C21.8 19.5 22.7 19 23.2 18.2L25.5 19.5C24.5 21 22.8 21.5 20.5 21.5C16.5 21.5 15 18 15 17.5ZM17.5 15.5H25.5C25.3 13.2 24.2 11.5 21.5 11.5C18.8 11.5 17.7 13.2 17.5 15.5Z"/>
    <path d="M31 20L26 14L31 8H34L29.5 14L34 20H31Z"/>
    <path d="M42 6H46V8H48V10H46V16C46 17 46.5 17.5 47.5 17.5H48V20H47C44.5 20 42 19.5 42 16V10H40V8H42V6Z"/>
    <path d="M52 17.5V16C52 12.5 54.5 9 58.5 9C62.5 9 65 12.5 65 16C65 16.5 65 17 64.9 17.5H54.5C54.7 18.8 55.8 19.5 57.5 19.5C58.8 19.5 59.7 19 60.2 18.2L62.5 19.5C61.5 21 59.8 21.5 57.5 21.5C53.5 21.5 52 18 52 17.5ZM54.5 15.5H62.5C62.3 13.2 61.2 11.5 58.5 11.5C55.8 11.5 54.7 13.2 54.5 15.5Z"/>
    <path d="M72 6H76V8H78V10H76V16C76 17 76.5 17.5 77.5 17.5H78V20H77C74.5 20 72 19.5 72 16V10H70V8H72V6Z"/>
    <path d="M82 17.5V16C82 12.5 84.5 9 88.5 9C92.5 9 95 12.5 95 16C95 16.5 95 17 94.9 17.5H84.5C84.7 18.8 85.8 19.5 87.5 19.5C88.8 19.5 89.7 19 90.2 18.2L92.5 19.5C91.5 21 89.8 21.5 87.5 21.5C83.5 21.5 82 18 82 17.5ZM84.5 15.5H92.5C92.3 13.2 91.2 11.5 88.5 11.5C85.8 11.5 84.7 13.2 84.5 15.5Z"/>
    <path d="M100 6H104V8H106V10H104V16C104 17 104.5 17.5 105.5 17.5H106V20H105C102.5 20 100 19.5 100 16V10H98V8H100V6Z"/>
  </g>
</svg>