<svg width="120" height="40" viewBox="0 0 120 40" fill="none" xmlns="http://www.w3.org/2000/svg">
  <g fill="#4285f4">
    <path d="M15 20C15 16.7 17.7 14 21 14C22.3 14 23.5 14.4 24.5 15.1L22.1 17.5C21.5 17.1 20.8 16.8 20 16.8C19.1 16.8 18.3 17.6 18.3 18.5S19.1 20.2 20 20.2C20.8 20.2 21.5 19.9 22.1 19.5L24.5 21.9C23.5 22.6 22.3 23 21 23C17.7 23 15 20.3 15 17Z"/>
    <path d="M30 20C30 16.7 32.7 14 36 14C39.3 14 42 16.7 42 20C42 23.3 39.3 26 36 26C32.7 26 30 23.3 30 20ZM32.5 20C32.5 21.9 34.1 23.5 36 23.5C37.9 23.5 39.5 21.9 39.5 20C39.5 18.1 37.9 16.5 36 16.5C34.1 16.5 32.5 18.1 32.5 20Z"/>
    <path d="M48 20C48 16.7 50.7 14 54 14C57.3 14 60 16.7 60 20C60 23.3 57.3 26 54 26C50.7 26 48 23.3 48 20ZM50.5 20C50.5 21.9 52.1 23.5 54 23.5C55.9 23.5 57.5 21.9 57.5 20C57.5 18.1 55.9 16.5 54 16.5C52.1 16.5 50.5 18.1 50.5 20Z"/>
    <path d="M66 28V8H73V10.5H68.5V16.5H72.5V19H68.5V25.5H73V28H66Z"/>
    <path d="M79 28V10.5H76V8H84.5V10.5H81.5V28H79Z"/>
    <path d="M90 28V8H93V16L98 8H101L96 16L101 28H98L94 20L93 21V28H90Z"/>
  </g>
</svg>