<svg width="120" height="40" viewBox="0 0 120 40" fill="none" xmlns="http://www.w3.org/2000/svg">
  <rect width="120" height="40" rx="8" fill="#ffffff" stroke="#e2e8f0" stroke-width="1"/>
  <!-- Google Logo -->
  <g>
    <path d="M30 17.5C30 16.7 29.3 16 28.5 16H25V19H28.5C29.3 19 30 18.3 30 17.5Z" fill="#4285f4"/>
    <path d="M32 20.5C32 21.3 31.3 22 30.5 22H25V19H30.5C31.3 19 32 19.7 32 20.5Z" fill="#ea4335"/>
    <path d="M36 17.5C36 16.7 35.3 16 34.5 16H32V19H34.5C35.3 19 36 18.3 36 17.5Z" fill="#fbbc04"/>
    <path d="M38 20.5C38 21.3 37.3 22 36.5 22H32V19H36.5C37.3 19 38 19.7 38 20.5Z" fill="#34a853"/>
    <text x="43" y="22" font-family="Arial, sans-serif" font-size="12" font-weight="500" fill="#5f6368">Google</text>
  </g>
  <text x="85" y="22" font-family="Arial, sans-serif" font-size="8" font-weight="400" fill="#666">NEWS</text>
</svg>