<svg width="120" height="40" viewBox="0 0 120 40" fill="none" xmlns="http://www.w3.org/2000/svg">
  <g fill="currentColor">
    <path d="M20 20C20 16.7 22.7 14 26 14C27.3 14 28.5 14.4 29.5 15.1L27.1 17.5C26.5 17.1 25.8 16.8 25 16.8C24.1 16.8 23.3 17.6 23.3 18.5S24.1 20.2 25 20.2C26.2 20.2 26.8 19.4 26.9 18.8H25V16.5H29.2C29.3 16.8 29.3 17.1 29.3 17.5C29.3 20.5 27.4 22.5 25 22.5C22.7 22.5 20 19.8 20 16.5Z"/>
    <path d="M34 22V10H36.5V19.5H41V22H34Z"/>
    <path d="M45 22V10H47.5V19.5H52V22H45Z"/>
    <path d="M56 22V10H58.5V19.5H63V22H56Z"/>
    <path d="M67 22V10H69.5V14.5H73.5V10H76V22H73.5V17H69.5V22H67Z"/>
    <path d="M80 22V10H87V12.5H82.5V14.8H86.5V17.3H82.5V19.5H87V22H80Z"/>
  </g>
</svg>