<svg width="120" height="26" viewBox="0 0 120 26" fill="none" xmlns="http://www.w3.org/2000/svg">
  <g fill="currentColor">
    <path d="M4 20V6H6V12L11 6H13.5L9 12L13.5 20H11L7.5 14L6 16V20H4Z"/>
    <path d="M16 17.5V16C16 12.5 18.5 9 22.5 9C24.8 9 26.5 10 27.5 11.5V6H29.5V20H27.5V18.5C26.5 19.8 24.8 20.5 22.5 20.5C18.5 20.5 16 17 16 17.5ZM18.5 16C18.5 17.9 20.1 19 22 19C23.9 19 25.5 17.9 25.5 16C25.5 14.1 23.9 13 22 13C20.1 13 18.5 14.1 18.5 16Z"/>
    <path d="M33 20L28 6H30.5L34 16L37.5 6H40L35 20H33Z"/>
    <path d="M43 20V9H45V10.5C45.8 9.5 47 9 48.5 9C50.8 9 52.5 10.7 52.5 13V20H50.5V13.5C50.5 11.8 49.7 11 48.5 11C47.3 11 46.5 11.8 46.5 13.5V20H43Z"/>
    <path d="M56 20V9H58V10.5C58.8 9.5 60 9 61.5 9C63.8 9 65.5 10.7 65.5 13V20H63.5V13.5C63.5 11.8 62.7 11 61.5 11C60.3 11 59.5 11.8 59.5 13.5V20H56Z"/>
    <path d="M70 17.5V16C70 12.5 72.5 9 76.5 9C80.5 9 83 12.5 83 16C83 16.5 83 17 82.9 17.5H72.5C72.7 18.8 73.8 19.5 75.5 19.5C76.8 19.5 77.7 19 78.2 18.2L80.5 19.5C79.5 21 77.8 21.5 75.5 21.5C71.5 21.5 70 18 70 17.5ZM72.5 15.5H80.5C80.3 13.2 79.2 11.5 76.5 11.5C73.8 11.5 72.7 13.2 72.5 15.5Z"/>
    <path d="M86 20V9H88V10.5C88.8 9.5 90 9 91.5 9C93.8 9 95.5 10.7 95.5 13V20H93.5V13.5C93.5 11.8 92.7 11 91.5 11C90.3 11 89.5 11.8 89.5 13.5V20H86Z"/>
  </g>
</svg>