<svg width="120" height="26" viewBox="0 0 120 26" fill="none" xmlns="http://www.w3.org/2000/svg">
  <g fill="currentColor">
    <path d="M4 20V6H6V12L11 6H13.5L9 12L13.5 20H11L7.5 14L6 16V20H4Z"/>
    <path d="M16 6H24V8H20V20H18V8H16V6Z"/>
    <path d="M26 18.5C29.3 18.5 31.5 17 31.5 14.5C31.5 12.8 30.5 11.8 28.8 11.3C30 10.8 30.5 10 30.5 8.8C30.5 6.8 28.8 5.5 26 5.5C23.2 5.5 21.5 6.8 21.5 8.8H23.5C23.5 7.8 24.5 7.5 26 7.5C27.5 7.5 28.5 7.8 28.5 8.8C28.5 9.8 27.5 10.2 26 10.2H25V12.2H26C28 12.2 29.5 12.5 29.5 14.5C29.5 15.8 28.2 16.5 26 16.5C23.8 16.5 22.5 15.8 22.5 14.5H20.5C20.5 17 22.7 18.5 26 18.5Z"/>
    <path d="M35 20V6H37V13L41 6H43.5L40 12L43.5 20H41L38.5 14L37 16.5V20H35Z"/>
    <circle cx="50" cy="14.5" r="5.5" stroke="currentColor" stroke-width="2" fill="none"/>
    <path d="M46.5 11L53.5 18M53.5 11L46.5 18"/>
    <path d="M60 6H64V8H66V10H64V16C64 17 64.5 17.5 65.5 17.5H66V20H65C62.5 20 60 19.5 60 16V10H58V8H60V6Z"/>
  </g>
</svg>