<svg width="120" height="40" viewBox="0 0 120 40" fill="none" xmlns="http://www.w3.org/2000/svg">
  <g fill="#e63946">
    <path d="M14 28V8H17V16L22 8H25L20 16L25 28H22L18 20L17 21V28H14Z"/>
    <path d="M31 28V24L34 21L31 18V14L36 20L31 28Z"/>
    <path d="M42.5 24H46.8L47.5 26H50L45.2 8H44L39.2 26H41.8L42.5 24ZM43.1 22L44.65 14.5L46.2 22H43.1Z"/>
    <path d="M56 28V18C56 15.8 57.8 14 60 14C62.2 14 64 15.8 64 18V28H61.5V18.5C61.5 17.7 60.8 17 60 17S58.5 17.7 58.5 18.5V28H56Z"/>
    <rect x="70" y="8" width="20" height="20" rx="4" fill="none" stroke="currentColor" stroke-width="2"/>
    <text x="80" y="22" text-anchor="middle" fill="currentColor" font-size="10" font-weight="bold">NBC</text>
  </g>
</svg>