<svg width="120" height="60" viewBox="0 0 120 60" fill="none" xmlns="http://www.w3.org/2000/svg">
  <rect width="120" height="60" rx="12" fill="#ffffff" stroke="#e2e8f0" stroke-width="1"/>
  <g transform="translate(20, 15)">
    <!-- NBC Peacock feathers -->
    <path d="M30 5 Q32 3 34 5 Q36 3 38 5 Q34 7 30 5 Z" fill="#FF6B00"/>
    <path d="M26 7 Q28 5 30 7 Q32 5 34 7 Q30 9 26 7 Z" fill="#FCCC00"/>
    <path d="M34 7 Q36 5 38 7 Q40 5 42 7 Q38 9 34 7 Z" fill="#00A651"/>
    <path d="M38 7 Q40 5 42 7 Q44 5 46 7 Q42 9 38 7 Z" fill="#0F7EC8"/>
    <path d="M42 7 Q44 5 46 7 Q48 5 50 7 Q46 9 42 7 Z" fill="#7B68EE"/>
    <path d="M46 7 Q48 5 50 7 Q52 5 54 7 Q50 9 46 7 Z" fill="#FF69B4"/>
    
    <!-- NBC Letters -->
    <path d="M8 12 L8 30 L12 30 L28 20 L28 30 L32 30 L32 12 L28 12 L12 22 L12 12 Z" fill="#0F7EC8"/>
    <path d="M38 12 L38 30 L50 30 Q54 30 56 28 Q58 26 58 22 Q58 18 56 16 Q54 14 50 14 L42 14 L42 18 L48 18 Q50 18 50 22 Q50 26 48 26 L42 26 L42 30 L38 30 Z" fill="#0F7EC8"/>
    <path d="M8 32 Q6 32 5 33 Q4 34 4 36 Q4 38 5 39 Q6 40 8 40 L12 40 Q14 40 15 39 Q16 38 16 36 Q16 34 15 33 Q14 32 12 32 Z M8 35 Q9 35 9 36 Q9 37 8 37 L12 37 Q11 37 11 36 Q11 35 12 35 Z" fill="#0F7EC8"/>
  </g>
</svg>