<svg width="88" height="88" viewBox="0 0 88 88" fill="none" xmlns="http://www.w3.org/2000/svg">
  <g transform="translate(20, 24)">
    <!-- NBC Peacock simplified -->
    <path d="M4 8 L4 32 L8 32 L28 16 L28 32 L32 32 L32 8 L28 8 L8 24 L8 8 Z" fill="#0F7EC8"/>
    <path d="M36 8 L36 32 L46 32 Q50 32 52 30 Q54 28 54 24 Q54 20 52 18 Q50 16 46 16 L40 16 L40 12 L52 12 L52 8 Z M40 20 L46 20 Q48 20 48 24 Q48 28 46 28 L40 28 Z" fill="#0F7EC8"/>
    <!-- Peacock feathers (simplified) -->
    <path d="M24 2 Q26 0 28 2 Q30 0 32 2 Q28 4 24 2 Z" fill="#FF6B00"/>
    <path d="M20 4 Q22 2 24 4 Q26 2 28 4 Q24 6 20 4 Z" fill="#FCCC00"/>
    <path d="M28 4 Q30 2 32 4 Q34 2 36 4 Q32 6 28 4 Z" fill="#00A651"/>
  </g>
</svg>