<svg width="88" height="88" viewBox="0 0 88 88" fill="none" xmlns="http://www.w3.org/2000/svg">
  <g transform="translate(14, 26)">
    <!-- USA Today logo -->
    <path d="M2 4 L2 20 L6 20 Q8 20 8 18 L8 14 Q8 12 6 12 L4 12 L4 8 L12 8 L12 4 Z" fill="#0052CC"/>
    <path d="M14 4 Q10 4 8 6 Q6 8 6 12 L6 16 Q6 20 8 22 Q10 24 14 24 Q18 24 20 22 Q22 20 22 16 L22 12 Q22 8 20 6 Q18 4 14 4 Z M14 8 Q16 8 16 12 L16 16 Q16 20 14 20 Q12 20 12 16 L12 12 Q12 8 14 8 Z" fill="#0052CC"/>
    <path d="M24 4 L24 24 L36 24 Q40 24 42 22 Q44 20 44 16 L44 12 Q44 8 42 6 Q40 4 36 4 Z M28 8 L36 8 Q38 8 38 12 L38 16 Q38 20 36 20 L28 20 Z" fill="#0052CC"/>
    <path d="M46 4 L54 20 L58 20 L66 4 L62 4 L56 16 L50 4 Z" fill="#0052CC"/>
    <!-- Globe accent -->
    <circle cx="36" cy="30" r="4" fill="#FF4444" opacity="0.8"/>
  </g>
</svg>