<svg width="120" height="26" viewBox="0 0 120 26" fill="none" xmlns="http://www.w3.org/2000/svg">
  <g fill="currentColor">
    <path d="M4 20L6 6H8L10 16L12 6H14L16 20H14L13 10L11.5 20H9.5L8 10L7 20H4Z"/>
    <path d="M20 20V6H28V8H22V12H27V14H22V20H20Z"/>
    <path d="M31 20V6H33V18H38V20H31Z"/>
    <path d="M42.5 18H46.8L47.5 20H50L45.2 6H44L39.2 20H41.8L42.5 18ZM43.1 16L44.65 11.5L46.2 16H43.1Z"/>
    <path d="M54 6H58V14H62V6H66V20H62V16H58V20H54V6Z"/>
    <path d="M70 17.5V16C70 12.5 72.5 9 76.5 9C80.5 9 83 12.5 83 16C83 16.5 83 17 82.9 17.5H72.5C72.7 18.8 73.8 19.5 75.5 19.5C76.8 19.5 77.7 19 78.2 18.2L80.5 19.5C79.5 21 77.8 21.5 75.5 21.5C71.5 21.5 70 18 70 17.5ZM72.5 15.5H80.5C80.3 13.2 79.2 11.5 76.5 11.5C73.8 11.5 72.7 13.2 72.5 15.5Z"/>
    <path d="M86 6H90V8H92V10H90V16C90 17 90.5 17.5 91.5 17.5H92V20H91C88.5 20 86 19.5 86 16V10H84V8H86V6Z"/>
  </g>
</svg>