<svg width="120" height="40" viewBox="0 0 120 40" fill="none" xmlns="http://www.w3.org/2000/svg">
  <g fill="#1a365d">
    <path d="M12 28L14 8H17L19 18L21 8H24L26 28H23L22 12L20.5 28H18.5L17 12L16 28H12Z"/>
    <path d="M32 20C32 16.7 34.7 14 38 14C39.3 14 40.5 14.4 41.5 15.1L39.1 17.5C38.5 17.1 37.8 16.8 37 16.8C36.1 16.8 35.3 17.6 35.3 18.5S36.1 20.2 37 20.2C37.8 20.2 38.5 19.9 39.1 19.5L41.5 21.9C40.5 22.6 39.3 23 38 23C34.7 23 32 20.3 32 17Z"/>
    <path d="M47 28V18C47 15.8 48.8 14 51 14C53.2 14 55 15.8 55 18V28H52.5V18.5C52.5 17.7 51.8 17 51 17S49.5 17.7 49.5 18.5V28H47Z"/>
    <path d="M65 28V18L60 8H63L66 16L69 8H72L67 18V28H65Z"/>
    <circle cx="78" cy="20" r="6" stroke="currentColor" stroke-width="2" fill="none"/>
    <text x="78" y="24" text-anchor="middle" fill="currentColor" font-size="10" font-weight="bold">9</text>
  </g>
</svg>