<svg width="120" height="26" viewBox="0 0 120 26" fill="none" xmlns="http://www.w3.org/2000/svg">
  <g fill="currentColor">
    <path d="M4 20L6 6H8L10 16L12 6H14L16 20H14L13 10L11.5 20H9.5L8 10L7 20H4Z"/>
    <path d="M20 17.5V16C20 12.5 22.5 9 26.5 9C28.8 9 30.5 10 31.5 11.5V6H33.5V20H31.5V18.5C30.5 19.8 28.8 20.5 26.5 20.5C22.5 20.5 20 17 20 17.5ZM22.5 16C22.5 17.9 24.1 19 26 19C27.9 19 29.5 17.9 29.5 16C29.5 14.1 27.9 13 26 13C24.1 13 22.5 14.1 22.5 16Z"/>
    <path d="M37 17.5V16C37 12.5 39.5 9 43.5 9C47.5 9 50 12.5 50 16C50 16.5 50 17 49.9 17.5H39.5C39.7 18.8 40.8 19.5 42.5 19.5C43.8 19.5 44.7 19 45.2 18.2L47.5 19.5C46.5 21 44.8 21.5 42.5 21.5C38.5 21.5 37 18 37 17.5ZM39.5 15.5H47.5C47.3 13.2 46.2 11.5 43.5 11.5C40.8 11.5 39.7 13.2 39.5 15.5Z"/>
    <path d="M53 20V9H55V10.5C55.8 9.5 57 9 58.5 9C60.8 9 62.5 10.7 62.5 13V20H60.5V13.5C60.5 11.8 59.7 11 58.5 11C57.3 11 56.5 11.8 56.5 13.5V20H53Z"/>
    <circle cx="72" cy="14.5" r="5.5" stroke="currentColor" stroke-width="2" fill="none"/>
    <path d="M68.5 11L75.5 18M75.5 11L68.5 18"/>
    <path d="M84 6H88V8H90V10H88V16C88 17 88.5 17.5 89.5 17.5H90V20H89C86.5 20 84 19.5 84 16V10H82V8H84V6Z"/>
  </g>
</svg>