<svg width="120" height="40" viewBox="0 0 120 40" fill="none" xmlns="http://www.w3.org/2000/svg">
  <rect width="120" height="40" rx="8" fill="#ffffff" stroke="#e2e8f0" stroke-width="1"/>
  <!-- Yahoo! Logo -->
  <g fill="#410093">
    <path d="M25 12L28 20L31 12H33L29 22V28H27V22L23 12H25Z"/>
    <path d="M37 20C37 17.8 38.8 16 41 16S45 17.8 45 20S43.2 24 41 24S37 22.2 37 20ZM39 20C39 21.1 39.9 22 41 22S43 21.1 43 20S42.1 18 41 18S39 18.9 39 20Z"/>
    <path d="M49 16H51V18H49V16ZM49 20H51V28H49V20Z"/>
    <path d="M55 16H57V18H55V16ZM55 20H57V28H55V20Z"/>
    <circle cx="59" cy="26.5" r="1.5" fill="#410093"/>
  </g>
  <!-- News text -->
  <text x="68" y="22" font-family="Arial, sans-serif" font-size="9" font-weight="500" fill="#666">NEWS</text>
</svg>