<svg width="120" height="40" viewBox="0 0 120 40" fill="none" xmlns="http://www.w3.org/2000/svg">
  <g fill="currentColor">
    <path d="M18 28V18L8 8H13L18 16L23 8H28L18 18V28H18Z"/>
    <path d="M38.5 22H42.8L43.5 24H46L41.2 10H40L35.2 24H37.8L38.5 22ZM39.1 20L40.65 15.5L42.2 20H39.1Z"/>
    <path d="M54 28V24H48V20H53V16H48V12H54V8H44V28H54Z"/>
    <path d="M62 28V24H56V20H61V16H56V12H62V8H52V28H62Z"/>
    <path d="M70 28V12H75V8H61V12H66V28H70Z"/>
    <path d="M83 28V18L73 8H78L83 16L88 8H93L83 18V28H83Z"/>
  </g>
</svg>