<svg width="128" height="128" viewBox="0 0 128 128" fill="none" xmlns="http://www.w3.org/2000/svg">
  <rect width="128" height="128" rx="64" fill="white"/>
  <g transform="translate(20, 32)">
    <circle cx="44" cy="32" r="28" fill="#E31837"/>
    <path d="M12 8 L32 56 L44 56 L64 8 L52 8 L38 40 L24 8 Z" fill="white"/>
    <path d="M8 48 L16 48 L20 38 L32 38 L36 48 L44 48 L30 8 L22 8 Z M24 24 L28 32 L20 32 Z" fill="white"/>
    <path d="M48 8 L48 56 L72 56 Q80 56 84 52 Q88 48 88 40 Q88 32 84 28 Q80 24 72 24 L56 24 L56 16 L80 16 L80 8 Z M56 32 L72 32 Q76 32 76 40 Q76 48 72 48 L56 48 Z" fill="white"/>
  </g>
</svg>