<svg width="128" height="128" viewBox="0 0 128 128" fill="none" xmlns="http://www.w3.org/2000/svg">
  <rect width="128" height="128" rx="64" fill="white"/>
  <g transform="translate(16, 28)">
    <circle cx="48" cy="36" r="32" fill="#0052CC"/>
    <path d="M8 8 L8 56 L16 56 Q20 56 20 52 L20 44 Q20 40 16 40 L12 40 L12 16 L32 16 L32 8 Z" fill="white"/>
    <path d="M36 8 Q28 8 24 12 Q20 16 20 24 L20 40 Q20 48 24 52 Q28 56 36 56 Q44 56 48 52 Q52 48 52 40 L52 24 Q52 16 48 12 Q44 8 36 8 Z M36 16 Q40 16 40 24 L40 40 Q40 48 36 48 Q32 48 32 40 L32 24 Q32 16 36 16 Z" fill="white"/>
    <path d="M56 8 L56 56 L80 56 Q88 56 92 52 Q96 48 96 40 L96 24 Q96 16 92 12 Q88 8 80 8 Z M64 16 L80 16 Q84 16 84 24 L84 40 Q84 48 80 48 L64 48 Z" fill="white"/>
    <path d="M4 60 L92 60 L92 68 L4 68 Z" fill="#FF4444"/>
  </g>
</svg>