<svg version="1.0" xmlns="http://www.w3.org/2000/svg" width="700.000000pt" height="700.000000pt" viewBox="0 0 700.000000 700.000000" preserveAspectRatio="xMidYMid meet">
<g transform="translate(0.000000,700.000000) scale(0.100000,-0.100000)" fill="#000000" stroke="none">
<path d="M1580 5469 c-19 -4 -46 -11 -60 -14 -14 -4 -32 -8 -40 -10 -8 -2 -26 -6 -40 -9 -14 -3 -36 -8 -50 -11 -14 -3 -36 -8 -50 -11 -14 -3 -36 -8 -50 -11 -14 -3 -36 -8 -50 -11 -14 -3 -36 -8 -50 -11 -14 -3 -36 -8 -50 -11 -14 -3 -36 -8 -50 -11 -14 -3 -36 -8 -50 -11 -14 -3 -36 -8 -50 -11 -14 -3 -36 -8 -50 -11 -14 -3 -36 -8 -50 -11 -14 -3 -36 -8 -50 -11 -14 -3 -36 -8 -50 -11 -14 -3 -36 -8 -50 -11 -14 -3 -36 -8 -50 -11 -14 -3 -36 -8 -50 -11 -14 -3 -36 -8 -50 -11 -14 -3 -36 -8 -50 -11 -14 -3 -36 -8 -50 -11 -14 -3 -36 -8 -50 -11 -14 -3 -36 -8 -50 -11 -14 -3 -36 -8 -50 -11 -14 -3 -36 -8 -50 -11 -93 -21 -170 -65 -232 -132 -63 -68 -106 -156 -118 -243 -3 -19 -7 -623 -9 -1342 -3 -1440 -6 -1339 55 -1441 29 -49 84 -104 133 -133 102 -61 1 -55 1441 -55 1440 0 1339 -6 1441 55 49 29 104 84 133 133 61 102 55 1 55 1441 0 1440 6 1339 -55 1441 -29 49 -84 104 -133 133 -102 61 -1 55 -1441 54 -720 0 -1323 -3 -1342 -6z"/>
</g>
</svg>